<?xml version="1.0" encoding="utf-8"?>
<!-- Generator: Adobe Illustrator 19.0.0, SVG Export Plug-In . SVG Version: 6.00 Build 0)  -->
<svg version="1.1"
	 id="svg2" shape-rendering="optimizeSpeed" xmlns:dc="http://purl.org/dc/elements/1.1/" xmlns:cc="http://creativecommons.org/ns#" xmlns:rdf="http://www.w3.org/1999/02/22-rdf-syntax-ns#" xmlns:svg="http://www.w3.org/2000/svg"
	 xmlns="http://www.w3.org/2000/svg" xmlns:xlink="http://www.w3.org/1999/xlink" x="0px" y="0px" viewBox="-278 320 54 153"
	 style="enable-background:new -278 320 54 153;" xml:space="preserve">
<style type="text/css">
	.st0{display:none;}
</style>
<g id="Calque_1" class="st0">
</g>
<g id="Calque_2">
	<circle id="circle8" cx="-246.7" cy="387.3" r="4.7"/>
	<g id="g10">
		<path id="path12" d="M-267,391.9h-11V383h11V391.9z M-276,389.9h7V385h-7V389.9z"/>
	</g>
	<g id="g14">
		
			<rect id="rect16" x="-274" y="398.8" transform="matrix(-0.4674 -0.884 0.884 -0.4674 -758.2863 350.5549)" width="1" height="9.8"/>
	</g>
	<rect id="rect18" x="-251" y="401" width="15.2" height="9"/>
	<path id="path20" d="M-242,320v40.1h2.3v7.5l2.7-2.7v-4.8h2V320H-242z M-236,321v5.1h-5V321H-236z M-241,328v-0.9h5v0.9H-241z
		 M-236,329v27.1h-5V329H-236z M-241,359.1v-2h5v2H-241z"/>
	<path id="path22" d="M-274.5,320c-1.9,0-3.5,1.6-3.5,3.5v35.8l3.4,9.1l0.5-1c0.3-0.6,3.1-6.3,3.1-8v-35.9
		C-271.1,321.6-272.6,320-274.5,320z M-277,328.9h0.6v28.3c-0.2,0-0.4,0.1-0.6,0.2V328.9z M-273.6,357.2c-0.4,0.1-0.8,0.3-1,0.6
		c-0.2-0.2-0.5-0.4-0.8-0.5v-28.4h1.8C-273.6,328.9-273.6,357.2-273.6,357.2z M-272.1,359.2c0,0.7-0.7,2.7-1.6,4.6h-1.5l-1.8-4.6
		l0,0c0,0,0,0,0-0.1c0-0.5,0.4-1,0.9-1s0.9,0.4,0.9,0.9v0.1c0,0,0,0,0,0.1l0,0h1l0,0c0,0,0,0,0-0.1V359c0.1-0.5,0.4-0.9,0.9-0.9
		c0.4,0,1,0.4,1.1,0.8v0.3H-272.1z M-272.1,357.5c-0.2-0.1-0.3-0.2-0.5-0.3v-28.3h0.5V357.5z M-272.1,327.9h-4.9v-1.1h4.9V327.9z
		 M-272.1,325.8h-4.9v-2.3c0-1.4,1.1-2.5,2.5-2.5s2.5,1.1,2.5,2.5v2.3H-272.1z"/>
	<polygon id="polygon24" points="-277,418.1 -260.2,418.1 -260.2,417 -278,417 -278,429.9 -260.2,429.9 -260.2,428.7 -277,428.7 	
		"/>
	<g id="g26" transform="translate(0,-2)">
		<rect id="rect28" x="-259.2" y="419" width="1.7" height="1"/>
		<rect id="rect30" x="-256" y="419" width="0.8" height="1"/>
	</g>
	<g id="g32">
		<rect id="rect34" x="-259.2" y="428.9" width="1.7" height="1"/>
		<rect id="rect36" x="-256" y="428.9" width="0.8" height="1"/>
	</g>
	<g id="g38" transform="matrix(1.3992369,0,0,1.3992369,-1.0779396,-43.157507)">
		<path id="path40" d="M-192.9,335.8c-0.6,0.4-0.9,0.7-1,0.7c-0.3,0.1-0.5,0.2-0.8,0.2c-0.4,0-0.7-0.1-0.9-0.4
			c-0.2-0.3-0.4-0.6-0.4-1c0-0.3,0.1-0.5,0.2-0.7c0.2-0.3,0.4-0.5,0.8-0.8c0.4-0.3,1.1-0.5,2-0.9v-0.2c0-0.5-0.1-0.9-0.3-1.1
			c-0.2-0.2-0.4-0.3-0.7-0.3c-0.2,0-0.4,0.1-0.6,0.2c-0.1,0.2-0.1,0.4-0.1,0.5v0.3c0,0.2,0,0.3-0.1,0.4s-0.2,0.1-0.4,0.1
			c-0.1,0-0.3-0.1-0.4-0.2c-0.1-0.1-0.1,0-0.1-0.2c0-0.3,0.2-0.6,0.5-0.9c0.3-0.3,0.8-0.4,1.4-0.4c0.5,0,0.9,0.1,1.2,0.2
			c0.2,0.1,0.4,0.3,0.5,0.6c0.1,0.2,0.1,0.5,0.1,1v1.8c0,0.5,0,0.8,0,0.9s0.1,0.2,0.1,0.2s0.1,0.1,0.2,0.1c0.1,0,0.1,0,0.2,0
			c0.1-0.1,0.2-0.2,0.5-0.4v0.3c-0.4,0.6-0.9,0.9-1.3,0.9c-0.2,0-0.3-0.1-0.5-0.2C-193,336.4-192.9,336.1-192.9,335.8L-192.9,335.8z
			 M-192.9,335.4v-2c-0.6,0.2-1,0.4-1.1,0.5c-0.3,0.2-0.5,0.4-0.7,0.5c-0.2,0.1-0.2,0.4-0.2,0.6c0,0.3,0.1,0.5,0.3,0.7
			c0.2,0.2,0.4,0.3,0.6,0.3S-193.4,335.8-192.9,335.4z"/>
		<path id="path42" d="M-186,335.9c-0.3,0.3-0.7,0.5-1,0.6s-0.7,0.2-1,0.2c-0.6,0-1.1-0.1-1.4-0.4c-0.3-0.3-0.5-0.7-0.5-1.1
			c0-0.3,0.1-0.5,0.2-0.7c0.1-0.2,0.3-0.4,0.5-0.5c0.2-0.1,0.4-0.2,0.7-0.3c0.2,0,0.5-0.1,0.8-0.1c0.8-0.1,1.3-0.2,1.7-0.3
			c0-0.1,0-0.2,0-0.2c0-0.4-0.1-0.6-0.3-0.8c-0.2-0.2-0.6-0.3-1.1-0.3c-0.4,0-0.8,0.1-1,0.2c-0.2,0.1-0.4,0.4-0.5,0.8l-0.9-0.1
			c0.1-0.4,0.2-0.7,0.4-0.9c0.2-0.2,0.5-0.4,0.8-0.6c0.4-0.1,0.8-0.2,1.3-0.2s0.9,0.1,1.1,0.2c0.3,0.1,0.5,0.3,0.6,0.4
			c0.1,0.2,0.2,0.4,0.3,0.6c0,0.2,0,0.4,0,0.9v1.2c0,0.9,0,1.4,0.1,1.6c0,0.2,0.1,0.5,0.2,0.7h-1C-185.9,336.4-186,336.2-186,335.9
			L-186,335.9z M-186.1,333.8c-0.3,0.1-0.8,0.3-1.5,0.4c-0.4,0.1-0.7,0.1-0.8,0.2c-0.2,0.1-0.3,0.2-0.4,0.3
			c-0.1,0.1-0.1,0.3-0.1,0.4c0,0.2,0.1,0.5,0.3,0.6c0.2,0.2,0.5,0.2,0.8,0.2c0.4,0,0.7-0.1,1-0.2c0.3-0.2,0.5-0.4,0.6-0.6
			c0.1-0.2,0.2-0.5,0.2-0.9v-0.4H-186.1z"/>
	</g>
	<polygon id="polygon44" points="-272.1,439.8 -275,439.8 -275,440.8 -273.5,440.8 -273.5,443.4 -275,443.4 -275,444.8 -271,444.8 
		-271,443.4 -272.1,443.4 	"/>
	<rect id="rect46" x="-273.7" y="437" width="1.6" height="1.6"/>
	<rect id="rect48" x="-258.7" y="437" width="1.6" height="1.6"/>
	<polygon id="polygon50" points="-258.7,444.7 -258.7,439.8 -257.1,439.8 -257.1,444.7 	"/>
	<path id="path52" d="M-278,455v11.1h15.1V455H-278z M-267.9,465.1h-9.1V456h9.1V465.1z M-266.9,465.1v-8.2h3v8.2H-266.9z"/>
	<circle id="circle54" cx="-273.1" cy="461.2" r="3.2"/>
	<circle id="circle56" cx="-273.7" cy="460.1" r="0.8"/>
	<circle id="circle58" cx="-269.5" cy="457.5" r="0.8"/>
	<path id="path60" d="M-249.1,457v11.1h15.1V457H-249.1z M-239.1,467.1h-9.1V458h9.1V467.1z M-238.1,467.1v-8.2h3v8.2H-238.1z"/>
	<circle id="circle62" cx="-244.2" cy="463.2" r="3.2"/>
	<circle id="circle64" cx="-244.9" cy="462.1" r="0.8"/>
	<circle id="circle66" cx="-240.6" cy="459.5" r="0.8"/>
	<g id="g68">
		<polygon id="polygon70" points="-251,455 -251,459.9 -250,459.9 -250,456 -246.2,456 -246.2,455 		"/>
		<polygon id="polygon72" points="-237.2,456 -233.1,456 -233.1,459.9 -232.1,459.9 -232.1,455 -237.2,455 		"/>
	</g>
	<g id="g74">
		<polygon id="polygon76" points="-250,469 -250,464.9 -251,464.9 -251,470 -246.2,470 -246.2,469 		"/>
		<polygon id="polygon78" points="-233.1,469 -237.2,469 -237.2,470 -232.1,470 -232.1,464.9 -233.1,464.9 		"/>
	</g>
</g>
</svg>
