<?xml version="1.0" encoding="UTF-8" standalone="no"?>
<svg width="47px" height="150px" viewBox="0 0 47 150" version="1.1" xmlns="http://www.w3.org/2000/svg" xmlns:xlink="http://www.w3.org/1999/xlink">
    <!-- Generator: Sketch 39.1 (31720) - http://www.bohemiancoding.com/sketch -->
    <title>tools</title>
    <desc>Created with Sketch.</desc>
    <defs>
        <path d="M19,1 L20,1 L20,0 L22,0 L22,1 L24,1 L24,10 L22,10 L22,11 L20,11 L20,10 L19,10 L19,11 L18,11 L18,10 L1,10 L1,1 L18,1 L18,0 L19,0 L19,1 Z M0,0 L24,0 L24,11 L0,11 L0,0 Z" id="path-1"></path>
    </defs>
    <g id="Page-1" stroke="none" stroke-width="1" fill="none" fill-rule="evenodd">
        <g id="tools">
            <g id="Calque_2" fill="#000000">
                <g>
                    <circle id="circle8" cx="32.5" cy="67.5000028" r="4.5"></circle>
                    <g id="g10" transform="translate(1.000000, 63.000000)">
                        <path d="M11,8.9 L0,8.9 L0,0 L11,0 L11,8.9 L11,8.9 Z M2,6.9 L9,6.9 L9,2 L2,2 L2,6.9 L2,6.9 Z" id="path12"></path>
                    </g>
                    <g id="g14" transform="translate(0.000000, 80.000000)">
                        <rect id="rect16" transform="translate(5.451457, 3.689482) rotate(62.133113) translate(-5.451457, -3.689482) " x="4.95147762" y="-1.21031952" width="1" height="9.8000002"></rect>
                    </g>
                    <rect id="rect18" x="28" y="81" width="15" height="9"></rect>
                    <path d="M37,40 L39,40 L39,49 L43,45 L43,40 L45,40 L45,0 L44,0 L37,0 L37,40 Z M44,6 L38,6 L38,1 L44,1 L44,6 Z M38,7 L44,7 L44,8 L38,8 L38,7 Z M44,36 L38,36 L38,9 L44,9 L44,36 Z M38,39 L38,37 L44,37 L44,39 L38,39 Z" id="path20"></path>
                    <g id="camera" transform="translate(1.000000, 135.000000)">
                        <path d="M8.8817842e-16,11 L15,11 L15,0 L8.8817842e-16,0 L8.8817842e-16,11 Z M1,10 L1,1 L10,1 L10,10 L1,10 Z M11,2 L14,2 L14,10 L11,10 L11,2 Z" id="path52"></path>
                        <circle id="circle54" cx="4.85000005" cy="6.14999995" r="2.85000005"></circle>
                        <path d="M8.5,3 C8.77614237,3 9,2.77614237 9,2.5 C9,2.22385763 8.77614237,2 8.5,2 C8.22385763,2 8,2.22385763 8,2.5 C8,2.77614237 8.22385763,3 8.5,3 Z" id="circle58"></path>
                    </g>
                    <g id="camera-copy" transform="translate(30.000000, 137.000000)">
                        <path d="M8.8817842e-16,11 L15,11 L15,0 L8.8817842e-16,0 L8.8817842e-16,11 Z M1,10 L1,1 L10,1 L10,10 L1,10 Z M11,2 L14,2 L14,10 L11,10 L11,2 Z" id="path52"></path>
                        <circle id="circle54" cx="4.85000005" cy="6.14999995" r="2.85000005"></circle>
                        <path d="M8.5,3 C8.77614237,3 9,2.77614237 9,2.5 C9,2.22385763 8.77614237,2 8.5,2 C8.22385763,2 8,2.22385763 8,2.5 C8,2.77614237 8.22385763,3 8.5,3 Z" id="circle58"></path>
                    </g>
                    <g id="g68" transform="translate(28.000000, 135.000000)">
                        <polygon id="polygon70" points="0 0 0 5 1 5 1 1 5 1 5 0"></polygon>
                        <polygon id="polygon72" points="14 1 18 1 18 5 19 5 19 0 14 0"></polygon>
                    </g>
                    <g id="g74" transform="translate(28.000000, 145.000000)">
                        <polygon id="polygon76" points="1 4 1 1.4901218e-09 0 1.4901218e-09 0 5 5 5 5 4"></polygon>
                        <polygon id="polygon78" points="18 3.9999999 14 3.9999999 14 4.9999999 19 5 19 1.4901218e-09 18 1.4901218e-09"></polygon>
                    </g>
                </g>
            </g>
            <g id="sans-serif" transform="translate(20.000000, 117.000000)" fill="#000000">
                <rect id="rect48" x="0.500000001" y="0" width="1.5" height="1.5"></rect>
                <polygon id="polygon50" points="0.500000003 8 0.500000003 3 2.00000005 3 2 8"></polygon>
            </g>
            <g id="serif" transform="translate(4.000000, 117.000000)" fill="#000000">
                <polygon id="polygon44" points="3 3 0 3 0 4 1.5 4 1.5 7 0 7 0 7.8 4 7.8 4 7 3 7"></polygon>
                <rect id="rect46" x="1.49999999" y="0" width="1.50000001" height="1.5"></rect>
            </g>
            <g id="Group" transform="translate(1.000000, 97.000000)">
                <mask id="mask-2" fill="white">
                    <use xlink:href="#path-1"></use>
                </mask>
                <use id="Combined-Shape" fill="#0E0D0D" xlink:href="#path-1"></use>
                <path d="M12.0347594,7.91087344 C11.987225,7.81877553 11.945633,7.66874733 11.9099822,7.46078431 C11.5653578,7.82026324 11.1434963,8 10.644385,8 C10.1601283,8 9.7650045,7.86185521 9.45900178,7.5855615 C9.15299906,7.30926778 9,6.96761939 9,6.56060606 C9,6.04664033 9.19087747,5.65225925 9.57263815,5.37745098 C9.95439882,5.10264271 10.5002935,4.96524064 11.2103387,4.96524064 L11.8743316,4.96524064 L11.8743316,4.64884135 C11.8743316,4.39928574 11.8045164,4.1994957 11.6648841,4.04946524 C11.5252518,3.89943478 11.3128357,3.82442068 11.0276292,3.82442068 C10.7810445,3.82442068 10.5790263,3.88606593 10.4215686,4.00935829 C10.2641109,4.13265065 10.1853832,4.28936328 10.1853832,4.47950089 L9.10249554,4.47950089 C9.10249554,4.21509078 9.19013578,3.96776705 9.36541889,3.73752228 C9.54070201,3.50727752 9.77911317,3.32679804 10.0806595,3.19607843 C10.3822059,3.06535882 10.7186553,3 11.0900178,3 C11.6544889,3 12.1045735,3.14185836 12.4402852,3.42557932 C12.7759969,3.70930029 12.9483066,4.10813766 12.9572193,4.62210339 L12.9572193,6.79679144 C12.9572193,7.23054287 13.0181218,7.57664755 13.1399287,7.83511586 L13.1399287,7.91087344 L12.0347594,7.91087344 Z M10.8449198,7.13101604 C11.0588246,7.13101604 11.2601001,7.07902607 11.4487522,6.97504456 C11.6374044,6.87106306 11.7792627,6.73143284 11.8743316,6.55614973 L11.8743316,5.64705882 L11.2905526,5.64705882 C10.8894811,5.64705882 10.5879392,5.71687393 10.385918,5.85650624 C10.1838968,5.99613855 10.0828877,6.19370045 10.0828877,6.44919786 C10.0828877,6.65716087 10.1519601,6.82278607 10.290107,6.94607843 C10.4282538,7.06937079 10.6131896,7.13101604 10.8449198,7.13101604 L10.8449198,7.13101604 Z" id="a" fill="#000000"></path>
                <path d="M5.65072765,7.21517672 C5.16215972,7.59286398 4.85550998,7.81115702 4.73076923,7.87006237 C4.54365811,7.95668789 4.3444224,8 4.13305613,8 C3.80387916,8 3.53274535,7.88738851 3.31964657,7.66216216 C3.10654779,7.43693581 3,7.14068098 3,6.77338877 C3,6.54123238 3.05197453,6.34026419 3.15592516,6.17047817 C3.29799101,5.93485676 3.54487004,5.71309875 3.89656965,5.50519751 C4.24826926,5.29729626 4.83298274,5.04435353 5.65072765,4.74636175 L5.65072765,4.55925156 C5.65072765,4.08454371 5.57536458,3.75883664 5.42463617,3.58212058 C5.27390777,3.40540452 5.05474849,3.31704782 4.76715177,3.31704782 C4.54885546,3.31704782 4.37560702,3.37595229 4.24740125,3.49376299 C4.11573046,3.6115737 4.04989605,3.74670748 4.04989605,3.8991684 L4.06029106,4.2006237 C4.06029106,4.36001466 4.01957768,4.48302105 3.93814969,4.56964657 C3.8567217,4.65627209 3.75017391,4.6995842 3.61850312,4.6995842 C3.49029735,4.6995842 3.38548204,4.6545396 3.30405405,4.56444906 C3.22262607,4.47435852 3.18191268,4.35135213 3.18191268,4.1954262 C3.18191268,3.89743441 3.33437131,3.62370187 3.63929314,3.37422037 C3.94421497,3.12473888 4.37213862,3 4.92307692,3 C5.34580946,3 5.69230634,3.07103186 5.96257796,3.21309771 C6.16701419,3.32051336 6.31774033,3.48856435 6.41476091,3.71725572 C6.47713129,3.86625161 6.50831601,4.17116887 6.50831601,4.63201663 L6.50831601,6.24844075 C6.50831601,6.70235847 6.51697843,6.98042222 6.53430353,7.08264033 C6.55162864,7.18485845 6.58021463,7.25329158 6.62006237,7.28794179 C6.65991011,7.322592 6.70582095,7.33991684 6.75779626,7.33991684 C6.81323659,7.33991684 6.86174615,7.32778945 6.9033264,7.3035343 C6.97609184,7.25848903 7.11642308,7.13201767 7.32432432,6.92411642 L7.32432432,7.21517672 C6.936242,7.73492983 6.56549033,7.99480249 6.21205821,7.99480249 C6.04227219,7.99480249 5.90713841,7.93589802 5.80665281,7.81808732 C5.7061672,7.70027661 5.65419267,7.49930842 5.65072765,7.21517672 L5.65072765,7.21517672 Z M5.65072765,6.87733888 L5.65072765,5.06340956 C5.12750951,5.27131081 4.78967505,5.41857199 4.63721414,5.50519751 C4.36347749,5.65765842 4.16770676,5.81704699 4.04989605,5.98336798 C3.93208534,6.14968898 3.87318087,6.33159984 3.87318087,6.52910603 C3.87318087,6.77858753 3.9476777,6.98561941 4.0966736,7.1502079 C4.24566949,7.31479639 4.41718545,7.3970894 4.61122661,7.3970894 C4.87456819,7.3970894 5.22106507,7.22384096 5.65072765,6.87733888 L5.65072765,6.87733888 Z" id="a" fill="#000000"></path>
            </g>
            <path d="M7.5,38.5 L8,38.5 L6,44 L4,44 L2,38.5 L2.5,38.5 C2.5,37.9477153 2.94771525,37.5 3.5,37.5 C4.05228475,37.5 4.5,37.9477153 4.5,38.5 L5,38.5 L5.5,38.5 C5.5,37.9477153 5.94771525,37.5 6.5,37.5 C7.05228475,37.5 7.5,37.9477153 7.5,38.5 Z M5.08691607,38 L4.91308393,38 C4.80378447,37.65369 4.55703778,37.2270799 4,37.0658573 L4,9 L6,9 L6,37.0658573 C5.44296222,37.2270799 5.19621553,37.65369 5.08691607,38 Z M7.91308393,38 L8,38 L8,9 L7,9 L7,37.0658573 C7.55703778,37.2270799 7.80378447,37.65369 7.91308393,38 Z M3,37.0658573 L3,9 L2,9 L2,38 L2.08691607,38 C2.19621553,37.65369 2.44296222,37.2270799 3,37.0658573 Z M1,38.5 L1,4 C1,4 1,-3.00038466e-15 5,0 C9,3.00038467e-15 9,4 9,4 L9,38.5 L5,49 L1,38.5 Z M2,4 C2,4 2,1 5,1 C8,1 8,4 8,4 L8,6 L2,6 L2,4 Z M2,7 L8,7 L8,8 L2,8 L2,7 Z" id="Combined-Shape" fill="#000000"></path>
        </g>
    </g>
</svg>