<svg width="47" height="150" viewBox="0 0 47 150" xmlns="http://www.w3.org/2000/svg" xmlns:xlink="http://www.w3.org/1999/xlink"><title>tools</title><defs><path d="M19 1h1V0h2v1h2v9h-2v1h-2v-1h-1v1h-1v-1H1V1h17V0h1v1zM0 0h24v11H0V0z" id="a"/></defs><g fill="none" fill-rule="evenodd"><g fill="#000"><circle cx="32.5" cy="67.5" r="4.5"/><path d="M12 71.9H1V63h11v8.9zm-9-2h7V65H3v4.9zM9.549 80.957l.467.884-8.663 4.58-.468-.883zM28 81h15v9H28zM37 40h2v9l4-4v-5h2V0h-8v40zm7-34h-6V1h6v5zm-6 1h6v1h-6V7zm6 29h-6V9h6v27zm-6 3v-2h6v2h-6z"/><g transform="translate(1 135)"><path d="M0 11h15V0H0v11zm1-1V1h9v9H1zm10-8h3v8h-3V2z"/><circle cx="4.85" cy="6.15" r="2.85"/><path d="M8.5 3a.5.5 0 1 0 0-1 .5.5 0 0 0 0 1z"/></g><g transform="translate(30 137)"><path d="M0 11h15V0H0v11zm1-1V1h9v9H1zm10-8h3v8h-3V2z"/><circle cx="4.85" cy="6.15" r="2.85"/><path d="M8.5 3a.5.5 0 1 0 0-1 .5.5 0 0 0 0 1z"/></g><path d="M28 135v5h1v-4h4v-1zM42 136h4v4h1v-5h-5z"/><g><path d="M29 149v-4h-1v5h5v-1zM46 149h-4v1h5v-5h-1z"/></g></g><g fill="#000"><path d="M20.5 117H22v1.5h-1.5zM20.5 125v-5H22v5z"/></g><g fill="#000"><path d="M7 120H4v1h1.5v3H4v.8h4v-.8H7zM5.5 117H7v1.5H5.5z"/></g><g transform="translate(1 97)"><use fill="#0E0D0D" xlink:href="#a"/><path d="M12.035 7.91a1.671 1.671 0 0 1-.125-.45c-.345.36-.767.54-1.266.54-.484 0-.879-.138-1.185-.414A1.326 1.326 0 0 1 9 6.56c0-.514.19-.909.573-1.184.381-.274.927-.412 1.637-.412h.664V4.65c0-.25-.07-.45-.21-.6-.139-.15-.351-.225-.636-.225-.247 0-.449.062-.606.185a.572.572 0 0 0-.237.47H9.102c0-.264.088-.511.263-.741.176-.23.414-.411.716-.542.301-.13.638-.196 1.009-.196.564 0 1.015.142 1.35.426.336.283.508.682.517 1.196v2.175c0 .434.061.78.183 1.038v.076h-1.105zm-1.19-.779c.214 0 .415-.052.604-.156.188-.104.33-.244.425-.419v-.909h-.583c-.402 0-.703.07-.905.21a.678.678 0 0 0-.303.592c0 .208.069.374.207.497.138.123.323.185.555.185zM5.65 7.215c-.488.378-.794.596-.92.655-.186.087-.386.13-.597.13-.33 0-.6-.113-.813-.338-.213-.225-.32-.521-.32-.889 0-.232.052-.433.156-.603.142-.235.389-.457.74-.665.352-.208.937-.46 1.755-.759V4.56c0-.474-.076-.8-.226-.977-.151-.177-.37-.265-.658-.265-.218 0-.391.059-.52.177a.532.532 0 0 0-.197.405l.01.302c0 .159-.04.282-.122.369a.418.418 0 0 1-.32.13.405.405 0 0 1-.314-.136.53.53 0 0 1-.122-.369c0-.298.152-.571.457-.82.305-.25.733-.375 1.284-.375.423 0 .77.071 1.04.213a.98.98 0 0 1 .452.504c.062.15.093.454.093.915v1.616c0 .454.009.732.026.835.018.102.046.17.086.205.04.035.086.052.138.052a.284.284 0 0 0 .145-.036c.073-.046.213-.172.421-.38v.291c-.388.52-.759.78-1.112.78a.506.506 0 0 1-.405-.177c-.1-.118-.153-.319-.156-.603zm0-.338V5.063c-.522.208-.86.356-1.013.442-.274.153-.47.312-.587.478a.924.924 0 0 0-.177.546c0 .25.075.457.224.621.149.165.32.247.514.247.264 0 .61-.173 1.04-.52z" fill="#000"/></g><path d="M7.5 38.5H8L6 44H4l-2-5.5h.5a1 1 0 0 1 2 0h1a1 1 0 0 1 2 0zM5.087 38h-.174c-.11-.346-.356-.773-.913-.934V9h2v28.066c-.557.161-.804.588-.913.934zm2.826 0H8V9H7v28.066c.557.161.804.588.913.934zM3 37.066V9H2v29h.087c.11-.346.356-.773.913-.934zM1 38.5V4s0-4 4-4 4 4 4 4v34.5L5 49 1 38.5zM2 4s0-3 3-3 3 3 3 3v2H2V4zm0 3h6v1H2V7z" fill="#000"/></g></svg>