<?xml version="1.0" encoding="UTF-8" standalone="no"?>
<!-- Created with Inkscape (http://www.inkscape.org/) -->

<svg
   xmlns:dc="http://purl.org/dc/elements/1.1/"
   xmlns:cc="http://creativecommons.org/ns#"
   xmlns:rdf="http://www.w3.org/1999/02/22-rdf-syntax-ns#"
   xmlns:svg="http://www.w3.org/2000/svg"
   xmlns="http://www.w3.org/2000/svg"
   xmlns:xlink="http://www.w3.org/1999/xlink"
   version="1.1"
   width="54"
   height="153"
   viewBox="0 0 54 153"
   id="svg2"
   shape-rendering="optimizeSpeed"
   xml:space="preserve">
   <metadata
   id="metadata84"><rdf:RDF><cc:Work
       rdf:about=""><dc:format>image/svg+xml</dc:format><dc:type
         rdf:resource="http://purl.org/dc/dcmitype/StillImage" /><dc:title></dc:title></cc:Work></rdf:RDF></metadata><defs
   id="defs82" />
<g
   id="Calque_1"
   style="display:none">
</g>
<g
   id="Calque_2">
	<circle
   cx="31.299999"
   cy="67.300003"
   r="4.6999998"
   id="circle8" />
	<g
   id="g10">
		<path
   d="M 11,71.9 H 0 V 63 h 11 v 8.9 z m -9,-2 H 9 V 65 H 2 v 4.9 z"
   id="path12" />
	</g>
	<g
   id="g14">
		<rect
   width="1"
   height="9.8000002"
   x="3.9000001"
   y="78.800003"
   transform="matrix(0.4674,0.884,-0.884,0.4674,76.3857,40.6785)"
   id="rect16" />
	</g>
	<rect
   width="15.2"
   height="9"
   x="27"
   y="81"
   id="rect18" />
	<path
   d="m 36,0 v 40.1 h 2.3 v 7.5 L 41,44.9 v -4.8 h 2 V 0 h -7 z m 6,1 V 6.1 H 37 V 1 h 5 z M 37,8 V 7.1 h 5 V 8 h -5 z m 5,1 V 36.1 H 37 V 9 h 5 z m -5,30.1 v -2 h 5 v 2 h -5 z"
   id="path20" />
	<path
   d="M 3.5,0 C 1.6,0 0,1.6 0,3.5 v 35.8 l 3.4,9.1 0.5,-1 C 4.2,46.8 7,41.1 7,39.4 V 3.5 C 6.9,1.6 5.4,0 3.5,0 z M 1,8.9 H 1.6 V 37.2 C 1.4,37.2 1.2,37.3 1,37.4 V 8.9 z M 4.4,37.2 C 4,37.3 3.6,37.5 3.4,37.8 3.2,37.6 2.9,37.4 2.6,37.3 V 8.9 h 1.8 v 28.3 z m 1.5,2 c 0,0.7 -0.7,2.7 -1.6,4.6 H 2.8 L 1,39.2 h 0 c 0,0 0,0 0,-0.1 0,-0.5 0.4,-1 0.9,-1 0.5,0 0.9,0.4 0.9,0.9 0,0 0,0.1 0,0.1 0,0 0,0 0,0.1 h 0 1 0 c 0,0 0,0 0,-0.1 0,0 0,-0.1 0,-0.1 0.1,-0.5 0.4,-0.9 0.9,-0.9 0.4,0 1,0.4 1.1,0.8 v 0.3 z m 0,-1.7 C 5.7,37.4 5.6,37.3 5.4,37.2 V 8.9 H 5.9 V 37.5 z M 5.9,7.9 H 1 V 6.8 h 4.9 v 1.1 z m 0,-2.1 H 1 V 3.5 C 1,2.1 2.1,1 3.5,1 4.9,1 6,2.1 6,3.5 v 2.3 z"
   id="path22" />
	<polygon
   points="1,100 17.8,100 17.8,99 0,99 0,109.9 17.8,109.9 17.8,108.9 1,108.9 "
   transform="matrix(1,0,0,1.1875943,0,-20.616613)"
   id="polygon24" />
	<g
   transform="translate(0,-2)"
   id="g26">
		<rect
   width="1.7"
   height="1"
   x="18.799999"
   y="99"
   id="rect28" />
		<rect
   width="0.80000001"
   height="1"
   x="22"
   y="99"
   id="rect30" />
	</g>
	<g
   id="g32">
		<rect
   width="1.7"
   height="1"
   x="18.799999"
   y="108.9"
   id="rect34" />
		<rect
   width="0.80000001"
   height="1"
   x="22"
   y="108.9"
   id="rect36" />
	</g>
	<g
   transform="matrix(1.3992369,0,0,1.3992369,-1.0779396,-43.157507)"
   id="g38">
		<path
   d="m 5.8,107.1 c -0.6,0.4 -0.9,0.7 -1,0.7 -0.3,0.1 -0.5,0.2 -0.8,0.2 -0.4,0 -0.7,-0.1 -0.9,-0.4 -0.2,-0.3 -0.4,-0.6 -0.4,-1 0,-0.3 0.1,-0.5 0.2,-0.7 0.2,-0.3 0.4,-0.5 0.8,-0.8 0.4,-0.3 1.1,-0.5 2,-0.9 V 104 c 0,-0.5 -0.1,-0.9 -0.3,-1.1 -0.2,-0.2 -0.4,-0.3 -0.7,-0.3 -0.2,0 -0.4,0.1 -0.6,0.2 C 4,103 4,103.2 4,103.3 l 0,0.3 c 0,0.2 0,0.3 -0.1,0.4 -0.1,0.1 -0.2,0.1 -0.4,0.1 -0.1,0 -0.3,-0.1 -0.4,-0.2 -0.1,-0.1 -0.1,0 -0.1,-0.2 0,-0.3 0.2,-0.6 0.5,-0.9 0.3,-0.3 0.8,-0.4 1.4,-0.4 0.5,0 0.9,0.1 1.2,0.2 0.2,0.1 0.4,0.3 0.5,0.6 0.1,0.2 0.1,0.5 0.1,1 v 1.8 c 0,0.5 0,0.8 0,0.9 0,0.1 0.1,0.2 0.1,0.2 0,0 0.1,0.1 0.2,0.1 0.1,0 0.1,0 0.2,0 0.1,-0.1 0.2,-0.2 0.5,-0.4 v 0.3 c -0.4,0.6 -0.9,0.9 -1.3,0.9 -0.2,0 -0.3,-0.1 -0.5,-0.2 -0.2,-0.1 -0.1,-0.4 -0.1,-0.7 z m 0,-0.4 v -2 c -0.6,0.2 -1,0.4 -1.1,0.5 -0.3,0.2 -0.5,0.4 -0.7,0.5 -0.2,0.1 -0.2,0.4 -0.2,0.6 0,0.3 0.1,0.5 0.3,0.7 0.2,0.2 0.4,0.3 0.6,0.3 0.2,0 0.6,-0.2 1.1,-0.6 z"
   id="path40" />
		<path
   d="m 12.7,107.2 c -0.3,0.3 -0.7,0.5 -1,0.6 -0.3,0.1 -0.7,0.2 -1,0.2 -0.6,0 -1.1,-0.1 -1.4,-0.4 -0.3,-0.3 -0.5,-0.7 -0.5,-1.1 0,-0.3 0.1,-0.5 0.2,-0.7 0.1,-0.2 0.3,-0.4 0.5,-0.5 0.2,-0.1 0.4,-0.2 0.7,-0.3 0.2,0 0.5,-0.1 0.8,-0.1 0.8,-0.1 1.3,-0.2 1.7,-0.3 0,-0.1 0,-0.2 0,-0.2 0,-0.4 -0.1,-0.6 -0.3,-0.8 -0.2,-0.2 -0.6,-0.3 -1.1,-0.3 -0.4,0 -0.8,0.1 -1,0.2 -0.2,0.1 -0.4,0.4 -0.5,0.8 l -0.9,-0.1 c 0.1,-0.4 0.2,-0.7 0.4,-0.9 0.2,-0.2 0.5,-0.4 0.8,-0.6 0.4,-0.1 0.8,-0.2 1.3,-0.2 0.5,0 0.9,0.1 1.1,0.2 0.3,0.1 0.5,0.3 0.6,0.4 0.1,0.2 0.2,0.4 0.3,0.6 0,0.2 0,0.4 0,0.9 v 1.2 c 0,0.9 0,1.4 0.1,1.6 0,0.2 0.1,0.5 0.2,0.7 h -1 c 0.1,-0.4 0,-0.6 0,-0.9 z m -0.1,-2.1 c -0.3,0.1 -0.8,0.3 -1.5,0.4 -0.4,0.1 -0.7,0.1 -0.8,0.2 -0.2,0.1 -0.3,0.2 -0.4,0.3 -0.1,0.1 -0.1,0.3 -0.1,0.4 0,0.2 0.1,0.5 0.3,0.6 0.2,0.2 0.5,0.2 0.8,0.2 0.4,0 0.7,-0.1 1,-0.2 0.3,-0.2 0.5,-0.4 0.6,-0.6 0.1,-0.2 0.2,-0.5 0.2,-0.9 v -0.4 z"
   id="path42" />
	</g>
	<polygon
   points="5.9,119.8 3,119.8 3,120.8 4.5,120.8 4.5,123.4 3,123.4 3,124.8 7,124.8 7,123.4 5.9,123.4 "
   id="polygon44" />
	<rect
   width="1.6"
   height="1.6"
   x="4.3000002"
   y="117"
   id="rect46" />
	<rect
   width="1.6"
   height="1.6"
   x="19.299999"
   y="117"
   id="rect48" />
	<polygon
   points="19.3,124.7 19.3,119.8 20.9,119.8 20.9,124.7 "
   id="polygon50" />
	<path
   d="m 0,135 v 11.1 H 15.1 V 135 H 0 z m 10.1,10.1 H 1 V 136 h 9.1 v 9.1 z m 1,0 v -8.2 h 3 v 8.2 h -3 z"
   id="path52" />
	<circle
   cx="4.9000001"
   cy="141.2"
   r="3.2"
   id="circle54" />
	<circle
   cx="4.3000002"
   cy="140.10001"
   r="0.80000001"
   id="circle56" />
	<circle
   cx="8.5"
   cy="137.5"
   r="0.80000001"
   id="circle58" />
	<path
   d="m 28.9,137 v 11.1 H 44 V 137 H 28.9 z m 10,10.1 H 29.8 V 138 h 9.1 v 9.1 z m 1,0 v -8.2 h 3 v 8.2 h -3 z"
   id="path60" />
	<circle
   cx="33.799999"
   cy="143.2"
   r="3.2"
   id="circle62" />
	<circle
   cx="33.099998"
   cy="142.10001"
   r="0.80000001"
   id="circle64" />
	<circle
   cx="37.400002"
   cy="139.5"
   r="0.80000001"
   id="circle66" />
	<g
   id="g68">
		<polygon
   points="27,135 27,139.9 28,139.9 28,136 31.8,136 31.8,135 "
   id="polygon70" />
		<polygon
   points="40.8,136 44.9,136 44.9,139.9 45.9,139.9 45.9,135 40.8,135 "
   id="polygon72" />
	</g>
	<g
   id="g74">
		<polygon
   points="28,149 28,144.9 27,144.9 27,150 31.8,150 31.8,149 "
   id="polygon76" />
		<polygon
   points="44.9,149 40.8,149 40.8,150 45.9,150 45.9,144.9 44.9,144.9 "
   id="polygon78" />
	</g>
</g>
</svg>