<?xml version="1.0" encoding="UTF-8" standalone="no"?>
<!-- Generator: Adobe Illustrator 15.0.0, SVG Export Plug-In . SVG Version: 6.00 Build 0)  -->

<svg
   xmlns:dc="http://purl.org/dc/elements/1.1/"
   xmlns:cc="http://creativecommons.org/ns#"
   xmlns:rdf="http://www.w3.org/1999/02/22-rdf-syntax-ns#"
   xmlns:svg="http://www.w3.org/2000/svg"
   xmlns="http://www.w3.org/2000/svg"
   xmlns:sodipodi="http://sodipodi.sourceforge.net/DTD/sodipodi-0.dtd"
   xmlns:inkscape="http://www.inkscape.org/namespaces/inkscape"
   version="1.1"
   x="0px"
   y="0px"
   width="37"
   height="151"
   viewBox="0 0 37 151"
   enable-background="new 0 0 61 167"
   xml:space="preserve"
   id="svg2"
   inkscape:version="0.48.1"
   shape-rendering="optimizeSpeed"
   sodipodi:docname="tools.svg">

   <metadata
   id="metadata84">
      <rdf:RDF>
         <cc:Work
   rdf:about="">
            <dc:format>image/svg+xml</dc:format>
            <dc:type
   rdf:resource="http://purl.org/dc/dcmitype/StillImage" />
         </cc:Work>
      </rdf:RDF>
   </metadata>
   <defs
   id="defs82" />
   <sodipodi:namedview
   pagecolor="#ffffff"
   bordercolor="#666666"
   borderopacity="1"
   objecttolerance="10"
   gridtolerance="10"
   guidetolerance="10"
   inkscape:pageopacity="0"
   inkscape:pageshadow="2"
   inkscape:window-width="1071"
   inkscape:window-height="814"
   id="namedview80"
   showgrid="false"
   fit-margin-top="0"
   fit-margin-left="0"
   fit-margin-right="0"
   fit-margin-bottom="0"
   inkscape:zoom="8"
   inkscape:cx="21.501025"
   inkscape:cy="29.380783"
   inkscape:window-x="1128"
   inkscape:window-y="61"
   inkscape:window-maximized="0"
   inkscape:current-layer="Calque_2"
   inkscape:showpageshadow="false"
   borderlayer="false"
   showborder="true" />
<g
   id="Calque_1"
   display="none"
   style="display:none"
   transform="translate(-12.292,-5)">

</g>
<g
   id="Calque_2"
   transform="translate(-12.292,-5)">
	<circle
   cx="44"
   cy="68.667"
   r="4.6669998"
   id="circle8"
   sodipodi:cx="44"
   sodipodi:cy="68.667"
   sodipodi:rx="4.6669998"
   sodipodi:ry="4.6669998"
   d="m 48.667,68.667 c 0,2.577513 -2.089487,4.667 -4.667,4.667 -2.577513,0 -4.667,-2.089487 -4.667,-4.667 C 39.333,66.089487 41.422487,64 44,64 c 2.577513,0 4.667,2.089487 4.667,4.667 z" />
	<g
   id="g10">
		<path
   d="M 23.333,73.458 H 12.292 v -8.875 h 11.042 v 8.875 z m -9.041,-2 h 7.042 v -4.875 h -7.042 v 4.875 z"
   id="path12"
   inkscape:connector-curvature="0" />
	</g>
	<g
   id="g14">
		<rect
   x="17.833"
   y="85.806"
   transform="matrix(0.4674,0.884,-0.884,0.4674,89.955,32.1046)"
   width="1.001"
   height="9.8039999"
   id="rect16" />
	</g>
	<rect
   x="39.833"
   y="85"
   width="10.083"
   height="7.9169998"
   id="rect18" />
	<path
   d="M 41.75,5.917 V 46 h 2.292 v 7.458 L 46.75,50.75 V 46 h 2 V 5.917 h -7 z m 6,1 V 12 h -5 V 6.917 h 5 z m -5,7 V 13 h 5 v 0.917 h -5 z m 5,1 V 42 h -5 V 14.917 h 5 z M 42.75,45 v -2 h 5 v 2 h -5 z"
   id="path20"
   inkscape:connector-curvature="0" />
	<path
   d="m 17.625,5 c -1.907,0 -3.458,1.551 -3.458,3.458 v 35.75 l 3.356,9.057 0.51,-1.046 c 0.312,-0.641 3.05,-6.31 3.05,-8.011 V 8.458 C 21.083,6.551 19.532,5 17.625,5 z m -2.458,8.917 h 0.604 v 28.26 c -0.214,0.045 -0.42,0.113 -0.604,0.224 V 13.917 z m 3.416,28.25 c -0.409,0.086 -0.771,0.306 -1.042,0.615 -0.208,-0.238 -0.475,-0.416 -0.771,-0.529 V 13.917 h 1.813 v 28.25 z m 1.5,2.041 c 0,0.724 -0.745,2.678 -1.592,4.625 h -1.559 l -1.747,-4.667 h 0.004 c -10e-4,-0.021 -0.013,-0.04 -0.013,-0.062 0,-0.54 0.426,-0.979 0.949,-0.979 0.485,0 0.872,0.384 0.927,0.87 -0.002,0.037 -0.011,0.072 -0.011,0.11 0,0.021 0.005,0.041 0.006,0.062 h 0.014 0.961 0.013 c 0.001,-0.021 0.006,-0.041 0.006,-0.062 0,-0.038 -0.009,-0.073 -0.011,-0.11 0.055,-0.486 0.442,-0.87 0.927,-0.87 0.443,0 0.972,0.365 1.125,0.804 v 0.279 z m 0,-1.698 c -0.151,-0.114 -0.321,-0.204 -0.5,-0.27 V 13.917 h 0.5 V 42.51 z m 0,-29.593 h -4.917 v -1.083 h 4.917 v 1.083 z m 0,-2.084 H 15.166 V 8.458 C 15.167,7.103 16.269,6 17.625,6 c 1.356,0 2.458,1.103 2.458,2.458 v 2.375 z"
   id="path22"
   inkscape:connector-curvature="0" />
	<polygon
   points="16,116 16,107.083 32.833,107.083 32.833,106.083 15,106.083 15,117 32.833,117 32.833,116 "
   id="polygon24"
   transform="matrix(1,0,0,1.1946506,0,-20.649114)" />
	<g
   id="g26">
		<rect
   x="33.833"
   y="106.083"
   width="1.6670001"
   height="1"
   id="rect28" />
		<rect
   x="37.041"
   y="106.083"
   width="0.792"
   height="1"
   id="rect30" />
	</g>
	<g
   id="g32"
   transform="translate(0,2)">
		<rect
   x="33.833"
   y="116"
   width="1.6670001"
   height="1"
   id="rect34" />
		<rect
   x="37.041"
   y="116"
   width="0.792"
   height="1"
   id="rect36" />
	</g>
	<g
   id="g38"
   transform="matrix(1.7869642,0,0,1.7019838,-14.100946,-78.184266)">
		<path
   d="m 20.166,113.977 c -0.551,0.426 -0.896,0.672 -1.037,0.738 -0.211,0.098 -0.436,0.146 -0.674,0.146 -0.371,0 -0.677,-0.127 -0.917,-0.381 -0.24,-0.254 -0.36,-0.588 -0.36,-1.002 0,-0.262 0.059,-0.488 0.176,-0.68 0.16,-0.266 0.438,-0.516 0.835,-0.75 0.397,-0.234 1.056,-0.52 1.978,-0.855 v -0.211 c 0,-0.535 -0.085,-0.902 -0.255,-1.102 -0.17,-0.2 -0.417,-0.299 -0.741,-0.299 -0.246,0 -0.441,0.066 -0.586,0.199 -0.148,0.133 -0.223,0.285 -0.223,0.457 l 0.012,0.34 c 0,0.18 -0.046,0.318 -0.138,0.416 -0.092,0.098 -0.212,0.146 -0.36,0.146 -0.145,0 -0.263,-0.051 -0.354,-0.152 -0.091,-0.101 -0.138,-0.24 -0.138,-0.416 0,-0.336 0.172,-0.645 0.516,-0.926 0.344,-0.281 0.826,-0.422 1.447,-0.422 0.477,0 0.867,0.08 1.172,0.24 0.23,0.121 0.4,0.311 0.51,0.568 0.07,0.168 0.105,0.512 0.105,1.031 v 1.822 c 0,0.512 0.01,0.825 0.029,0.94 0.019,0.115 0.052,0.192 0.097,0.231 0.045,0.039 0.097,0.059 0.155,0.059 0.063,0 0.117,-0.014 0.164,-0.041 0.082,-0.051 0.24,-0.193 0.475,-0.428 v 0.328 c -0.438,0.586 -0.855,0.879 -1.254,0.879 -0.191,0 -0.344,-0.066 -0.457,-0.199 -0.113,-0.133 -0.173,-0.356 -0.177,-0.676 z m 0,-0.381 v -2.045 c -0.59,0.234 -0.971,0.4 -1.143,0.498 -0.309,0.172 -0.529,0.352 -0.662,0.539 -0.133,0.187 -0.199,0.393 -0.199,0.615 0,0.281 0.084,0.515 0.252,0.7 0.168,0.185 0.361,0.278 0.58,0.278 0.297,0.001 0.688,-0.195 1.172,-0.585 z"
   id="path40"
   inkscape:connector-curvature="0" />
		<path
   d="m 27.079,114.086 c -0.349,0.294 -0.681,0.502 -1.001,0.623 -0.32,0.121 -0.665,0.182 -1.03,0.182 -0.606,0 -1.072,-0.148 -1.396,-0.444 -0.326,-0.295 -0.488,-0.674 -0.488,-1.134 0,-0.271 0.061,-0.517 0.184,-0.74 0.123,-0.223 0.284,-0.402 0.482,-0.537 0.199,-0.135 0.424,-0.237 0.673,-0.306 0.182,-0.049 0.459,-0.095 0.831,-0.141 0.753,-0.09 1.308,-0.198 1.667,-0.322 0.002,-0.128 0.005,-0.209 0.005,-0.244 0,-0.38 -0.088,-0.648 -0.265,-0.804 -0.238,-0.211 -0.595,-0.317 -1.064,-0.317 -0.44,0 -0.765,0.077 -0.975,0.231 -0.21,0.154 -0.364,0.427 -0.463,0.817 l -0.914,-0.124 c 0.083,-0.392 0.219,-0.708 0.41,-0.947 0.189,-0.241 0.465,-0.427 0.826,-0.557 0.359,-0.129 0.776,-0.194 1.251,-0.194 0.469,0 0.852,0.056 1.147,0.166 0.292,0.111 0.508,0.251 0.648,0.418 0.138,0.169 0.234,0.381 0.291,0.636 0.031,0.159 0.047,0.447 0.047,0.861 v 1.247 c 0,0.868 0.02,1.417 0.059,1.648 0.039,0.23 0.118,0.45 0.237,0.662 h -0.976 c -0.098,-0.195 -0.161,-0.42 -0.186,-0.68 z M 27,111.999 c -0.34,0.139 -0.85,0.256 -1.526,0.353 -0.384,0.056 -0.657,0.118 -0.815,0.187 -0.16,0.07 -0.282,0.171 -0.368,0.304 -0.087,0.134 -0.129,0.282 -0.129,0.444 0,0.249 0.093,0.457 0.282,0.624 0.188,0.165 0.465,0.249 0.829,0.249 0.359,0 0.68,-0.079 0.961,-0.236 0.28,-0.158 0.484,-0.373 0.617,-0.646 0.099,-0.211 0.15,-0.523 0.15,-0.935 v -0.344 z"
   id="path42"
   inkscape:connector-curvature="0" />
	</g>
	<polygon
   points="17.333,129.667 15.833,129.667 15.833,131.042 19.875,131.042 19.875,129.667 18.75,129.667 18.75,126.042 15.833,126.042 15.833,127.083 17.333,127.083 "
   id="polygon44" />
	<rect
   x="17.125"
   y="123.292"
   width="1.584"
   height="1.584"
   id="rect46" />
	<rect
   x="23.125"
   y="123.292"
   width="1.584"
   height="1.584"
   id="rect48" />
	<polygon
   points="24.75,126.042 24.708,131.031 23.161,131.031 23.167,126.042 "
   id="polygon50" />
	<path
   d="m 12.771,143 v 11.063 H 27.834 V 143 H 12.771 z m 10.062,10.063 H 13.77 V 144 h 9.063 v 9.063 z m 1,0 v -8.188 h 3 v 8.188 h -3 z"
   id="path52"
   inkscape:connector-curvature="0" />
	<circle
   cx="17.677"
   cy="149.15601"
   r="3.1559999"
   id="circle54"
   sodipodi:cx="17.677"
   sodipodi:cy="149.15601"
   sodipodi:rx="3.1559999"
   sodipodi:ry="3.1559999"
   d="m 20.833,149.15601 c 0,1.74301 -1.412989,3.156 -3.156,3.156 -1.743011,0 -3.156,-1.41299 -3.156,-3.156 0,-1.74301 1.412989,-3.156 3.156,-3.156 1.743011,0 3.156,1.41299 3.156,3.156 z" />
	<circle
   cx="17.021"
   cy="148.063"
   r="0.81300002"
   id="circle56"
   sodipodi:cx="17.021"
   sodipodi:cy="148.063"
   sodipodi:rx="0.81300002"
   sodipodi:ry="0.81300002"
   style="fill:#ffffff"
   d="m 17.834,148.063 c 0,0.44901 -0.363993,0.813 -0.813,0.813 -0.449008,0 -0.813,-0.36399 -0.813,-0.813 0,-0.449 0.363992,-0.813 0.813,-0.813 0.449007,0 0.813,0.364 0.813,0.813 z" />
	<circle
   cx="21.271"
   cy="145.5"
   r="0.81300002"
   id="circle58"
   sodipodi:cx="21.271"
   sodipodi:cy="145.5"
   sodipodi:rx="0.81300002"
   sodipodi:ry="0.81300002"
   d="m 22.084,145.5 c 0,0.44901 -0.363993,0.813 -0.813,0.813 -0.449008,0 -0.813,-0.36399 -0.813,-0.813 0,-0.44901 0.363992,-0.813 0.813,-0.813 0.449007,0 0.813,0.36399 0.813,0.813 z" />
	<path
   d="m 31.833,143 v 11.063 H 46.896 V 143 H 31.833 z m 10.063,10.063 H 32.833 V 144 h 9.063 v 9.063 z m 1,0 v -8.188 h 3 v 8.188 h -3 z"
   id="path60"
   inkscape:connector-curvature="0" />
	<circle
   cx="36.738998"
   cy="149.15601"
   r="3.1559999"
   id="circle62"
   sodipodi:cx="36.738998"
   sodipodi:cy="149.15601"
   sodipodi:rx="3.1559999"
   sodipodi:ry="3.1559999"
   d="m 39.894998,149.15601 c 0,1.74301 -1.412989,3.156 -3.156,3.156 -1.74301,0 -3.155999,-1.41299 -3.155999,-3.156 0,-1.74301 1.412989,-3.156 3.155999,-3.156 1.743011,0 3.156,1.41299 3.156,3.156 z" />
	<circle
   cx="36.083"
   cy="148.063"
   r="0.81300002"
   id="circle64"
   sodipodi:cx="36.083"
   sodipodi:cy="148.063"
   sodipodi:rx="0.81300002"
   sodipodi:ry="0.81300002"
   style="fill:#ffffff"
   d="m 36.896,148.063 c 0,0.44901 -0.363992,0.813 -0.813,0.813 -0.449007,0 -0.813,-0.36399 -0.813,-0.813 0,-0.449 0.363993,-0.813 0.813,-0.813 0.449008,0 0.813,0.364 0.813,0.813 z" />
	<circle
   cx="40.333"
   cy="145.5"
   r="0.81300002"
   id="circle66"
   sodipodi:cx="40.333"
   sodipodi:cy="145.5"
   sodipodi:rx="0.81300002"
   sodipodi:ry="0.81300002"
   d="m 41.146,145.5 c 0,0.44901 -0.363992,0.813 -0.813,0.813 -0.449007,0 -0.813,-0.36399 -0.813,-0.813 0,-0.44901 0.363993,-0.813 0.813,-0.813 0.449008,0 0.813,0.36399 0.813,0.813 z" />
	<g
   id="g68">
		<polygon
   points="30.958,145.938 30.958,142 34.771,142 34.771,141 29.958,141 29.958,145.938 "
   id="polygon70" />
		<polygon
   points="47.896,145.938 48.896,145.938 48.896,141 43.771,141 43.771,142 47.896,142 "
   id="polygon72" />
	</g>
	<g
   id="g74">
		<polygon
   points="29.958,150.938 29.958,156 34.771,156 34.771,155 30.958,155 30.958,150.938 "
   id="polygon76" />
		<polygon
   points="43.771,156 48.896,156 48.896,150.938 47.896,150.938 47.896,155 43.771,155 "
   id="polygon78" />
	</g>
</g>
</svg>